<?xml version="1.0" encoding="utf-8"?>
<!-- Generator: Adobe Illustrator 24.2.1, SVG Export Plug-In . SVG Version: 6.00 Build 0)  -->
<svg version="1.1" id="Слой_1" xmlns="http://www.w3.org/2000/svg" xmlns:xlink="http://www.w3.org/1999/xlink" x="0px" y="0px"
	 viewBox="0 0 41.5 44" style="enable-background:new 0 0 41.5 44;" xml:space="preserve">
<style type="text/css">
	.st0{fill:#6B4C9F;}
	.st1{fill:#FFFFFF;}
	.st2{fill:#F58220;}
	.st3{fill:#9CCB3B;}
	.st4{fill:#E31E36;}
</style>
<path class="st0" d="M20.5,1.2H0.3v20.5h20.2V1.2z"/>
<path class="st1" d="M20.2,1.5v20H0.5v-20H20.2z M20.8,1H0v21h20.8L20.8,1L20.8,1z"/>
<path class="st2" d="M41.2,1.2H21v20.5h20.2V1.2z"/>
<path class="st1" d="M41,1.5v20H21.3v-20H41z M41.5,1H20.8v21h20.8V1z"/>
<path class="st3" d="M20.5,22.3H0.3v20.5h20.2V22.3z"/>
<path class="st1" d="M20.2,22.5v20H0.5v-20H20.2z M20.8,22H0v21h20.8L20.8,22L20.8,22z"/>
<path class="st4" d="M41.2,22.3H21v20.5h20.2V22.3z"/>
<path class="st1" d="M41,22.5v20H21.3v-20H41z M41.5,22H20.8v21h20.8V22z"/>
<path class="st1" d="M6.5,27.5h6.6v1.2H7.7v3.7h5.4v1.1H7.7v4.6h5.4v1.2H6.5V27.5z"/>
<path class="st1" d="M24.5,39.3l1.6-11.7h0.2l4.7,9.6l4.7-9.6h0.2l1.7,11.7h-1.1l-1.1-8.4l-4.1,8.4h-0.3l-4.1-8.4l-1.1,8.4H24.5z"/>
<path class="st1" d="M5.6,6h1.3l3.8,9.1L14.6,6h1.3l-5,11.7h-0.3L5.6,6z"/>
<path class="st1" d="M27.4,15.6l1-0.6c0.7,1.3,1.5,1.9,2.4,1.9c0.4,0,0.8-0.1,1.1-0.3c0.3-0.2,0.6-0.4,0.8-0.7
	c0.2-0.3,0.3-0.6,0.3-1c0-0.4-0.1-0.8-0.4-1.2c-0.4-0.5-1-1.1-2-1.9c-1-0.7-1.6-1.3-1.8-1.6c-0.4-0.6-0.6-1.1-0.6-1.8
	c0-0.5,0.1-1,0.4-1.4c0.2-0.4,0.6-0.7,1-1C30,5.8,30.4,5.7,31,5.7c0.5,0,1.1,0.1,1.5,0.4c0.5,0.3,1,0.8,1.5,1.5L33,8.4
	c-0.4-0.6-0.8-1-1.1-1.2c-0.3-0.2-0.6-0.3-1-0.3c-0.5,0-0.8,0.1-1.1,0.4c-0.3,0.3-0.4,0.6-0.4,1.1c0,0.3,0.1,0.5,0.2,0.7
	c0.1,0.2,0.3,0.5,0.6,0.8c0.2,0.1,0.6,0.5,1.5,1.2c1,0.7,1.7,1.4,2.1,2c0.4,0.6,0.6,1.2,0.6,1.8c0,0.8-0.3,1.6-1,2.2
	c-0.6,0.6-1.4,0.9-2.3,0.9c-0.7,0-1.3-0.2-1.9-0.6C28.4,17.1,27.9,16.4,27.4,15.6z"/>
</svg>
